# xmcd
#
# Track frame offsets:
# 150
# 10997
# 25036
# 37466
# 51151
# 56949
# 71563
# 84215
# 97475
# 109094
# 125625
# 136049
# 145834
# 157779
# 169394
# 181812
#
# Disc length: 2649 seconds
#
#
# Revision: 0
# Processed by: cddbd v1.5.1PL0 Copyright (c) Steve Scherf et al.
# Submitted via: FreeRIP 2.40 
#
DISCID=e10a5710
DTITLE=Various Artist - Story Of A Broken Heart
DYEAR=2004
DGENRE=Country
TTITLE0=Moanin' The Blues
TTITLE1=Don't Look Now But Your Broken Heart Is Showing
TTITLE2=Sunshine
TTITLE3=Molly
TTITLE4=Blue Love
TTITLE5=So Much To Do
TTITLE6=Heartaches By Number
TTITLE7=You Win Again
TTITLE8=To See An Angel Cry
TTITLE9=Somebody's Gonna Love You
TTITLE10=He Will Do For You
TTITLE11=The Story Of A Broken Heart
TTITLE12=Home Of The Blues
TTITLE13=You Only Want Me When You're Lonely
TTITLE14=Chained To A Memory
TTITLE15=Blue Bayou
EXTD=
EXTT0=Hank Williams
EXTT1=Ernest Tubb
EXTT2=Billie Jo Spears
EXTT3=Kenny Rogers and The First Edition
EXTT4=Buck Owens
EXTT5=Willie Nelson
EXTT6=Roger Miller
EXTT7=Jerry Lee Lewis
EXTT8=Conway Twitty
EXTT9=Lee Greenwood
EXTT10=Patsy Cline
EXTT11=Johnny Cash
EXTT12=Johnny Cash
EXTT13=Gene Autry
EXTT14=Eddy Arnold
EXTT15=Lynn Anderson
PLAYORDER=
